<?xml version="1.0" standalone="no"?>
<!DOCTYPE svg PUBLIC "-//W3C//DTD SVG 20010904//EN"
 "http://www.w3.org/TR/2001/REC-SVG-20010904/DTD/svg10.dtd">
<svg version="1.0" xmlns="http://www.w3.org/2000/svg"
 width="1200.000000pt" height="1200.000000pt" viewBox="0 0 1200.000000 1200.000000"
 preserveAspectRatio="xMidYMid meet">
<metadata>
Created by potrace 1.11, written by Peter Selinger 2001-2013
</metadata>
<g transform="translate(0.000000,1200.000000) scale(0.100000,-0.100000)"
fill="#000000" stroke="none">
<path d="M5616 11783 c10 -10 60 -50 111 -90 314 -246 567 -548 669 -796 68
-168 91 -366 55 -485 -56 -183 -127 -237 -596 -452 -299 -138 -438 -237 -557
-398 -93 -125 -159 -319 -175 -512 -9 -109 -9 -362 0 -463 12 -128 56 -314
120 -507 20 -60 23 -76 11 -78 -16 -4 -217 75 -314 123 -131 64 -224 120 -268
163 -7 6 -17 12 -21 12 -4 0 -40 31 -79 69 -152 148 -222 281 -230 436 -6 130
11 183 154 470 152 306 175 379 177 550 2 158 -6 216 -48 343 -210 625 -771
877 -1612 722 -139 -26 -266 -61 -256 -71 4 -4 40 -10 78 -14 39 -3 97 -10
130 -16 33 -5 69 -12 80 -14 127 -21 409 -99 490 -134 104 -46 248 -120 299
-155 237 -163 381 -379 370 -559 -6 -114 -58 -221 -211 -437 -267 -378 -338
-513 -367 -698 -33 -212 0 -389 118 -636 82 -170 167 -304 294 -461 38 -48
205 -217 253 -256 24 -20 55 -46 69 -58 14 -11 22 -20 18 -21 -4 0 -37 -6 -75
-14 -298 -62 -641 -51 -837 25 -174 68 -300 183 -349 319 -36 102 -40 134 -52
405 -3 72 -8 146 -10 165 -2 19 -7 59 -10 88 -23 206 -137 414 -312 569 -36
32 -70 63 -77 68 -24 23 -114 80 -181 115 -76 40 -173 73 -275 94 -63 13 -299
15 -345 3 -11 -3 -51 -13 -90 -22 -222 -51 -503 -200 -727 -383 -89 -72 -270
-243 -264 -249 2 -2 28 7 57 21 154 72 478 177 619 201 19 3 42 8 50 10 50 14
95 17 278 20 216 3 263 -3 392 -50 198 -72 309 -178 349 -335 15 -60 18 -103
16 -215 -2 -77 -6 -160 -10 -185 -6 -45 -7 -57 -21 -200 -44 -472 55 -747 356
-991 155 -125 457 -290 640 -349 111 -36 276 -78 340 -87 91 -12 91 -13 -11
-95 -237 -191 -430 -300 -625 -354 -85 -22 -273 -27 -353 -9 -166 39 -247 117
-437 420 -172 275 -286 387 -488 481 -72 33 -208 72 -281 80 -22 3 -51 7 -65
10 -35 7 -207 6 -255 -1 -490 -74 -858 -472 -1076 -1165 -17 -52 -32 -103 -34
-113 -2 -10 -7 -28 -10 -40 l-6 -22 18 21 c10 11 27 33 38 48 154 214 385 452
569 586 236 172 428 243 648 239 250 -4 361 -110 537 -514 115 -263 207 -423
306 -533 196 -216 452 -306 870 -305 183 0 421 28 535 63 19 6 46 13 59 16 13
3 70 22 127 43 58 21 106 36 108 32 3 -5 -49 -152 -73 -206 -88 -195 -169
-336 -244 -426 -230 -277 -474 -362 -728 -253 -24 10 -123 58 -219 105 -337
166 -386 181 -580 183 -174 1 -267 -17 -420 -81 -352 -150 -568 -423 -645
-818 -21 -108 -26 -398 -11 -570 12 -131 81 -455 97 -455 3 0 10 28 13 63 12
102 24 176 62 367 59 295 222 641 381 805 160 167 342 246 493 214 118 -25
190 -67 490 -280 261 -185 441 -274 601 -296 68 -9 209 -9 274 0 181 27 500
180 723 346 84 63 282 253 371 355 48 56 54 54 66 -28 5 -28 9 -53 10 -56 1
-6 14 -100 21 -161 3 -24 7 -99 8 -167 6 -287 -68 -528 -209 -676 -118 -125
-220 -156 -560 -171 -310 -13 -444 -42 -594 -127 -268 -152 -501 -494 -528
-776 -11 -122 -7 -260 11 -352 61 -304 278 -677 553 -950 52 -52 93 -88 89
-80 -3 8 -30 76 -60 150 -100 247 -165 493 -192 725 -6 49 -6 258 0 290 2 17
8 50 11 75 10 67 52 187 91 259 72 132 153 203 270 237 79 23 323 23 489 0
230 -32 594 -22 644 18 8 6 16 10 18 8 14 -11 134 43 226 102 147 94 326 323
462 592 68 135 154 366 171 464 22 122 38 197 44 204 5 4 21 -7 37 -24 15 -18
33 -38 38 -44 31 -34 139 -181 180 -245 67 -103 148 -280 175 -381 44 -166 29
-367 -37 -486 -35 -62 -131 -154 -228 -218 -44 -29 -140 -92 -212 -140 -241
-157 -379 -322 -446 -531 -95 -293 -79 -582 46 -834 25 -51 105 -165 157 -224
144 -164 363 -312 640 -434 138 -61 430 -156 430 -140 0 3 -33 30 -74 60 -402
303 -680 642 -770 937 -64 214 -50 412 39 532 68 92 168 153 490 300 378 172
545 301 659 508 87 160 119 336 120 655 1 296 -21 429 -115 704 -22 63 -37
116 -35 118 7 8 239 -87 359 -147 314 -158 508 -360 561 -588 28 -123 6 -244
-78 -412 -24 -47 -75 -148 -113 -225 -106 -211 -136 -323 -135 -505 2 -168 34
-292 118 -463 65 -130 104 -185 205 -286 155 -156 410 -274 644 -298 132 -14
566 -6 617 12 7 2 29 6 48 9 70 11 294 66 303 75 5 5 1 8 -10 8 -28 -1 -153
16 -278 38 -335 58 -654 176 -835 309 -73 53 -218 199 -258 260 -68 104 -93
229 -71 352 14 80 91 218 235 419 273 382 338 531 343 778 3 145 -27 269 -110
459 -127 289 -338 569 -591 782 -32 27 -56 52 -53 56 2 4 39 13 82 20 43 7 87
14 98 16 84 17 340 23 475 12 41 -4 115 -19 165 -33 265 -77 422 -232 460
-452 12 -72 16 -127 31 -398 5 -101 6 -113 25 -217 38 -218 177 -423 397 -586
140 -104 319 -182 448 -198 73 -8 279 -8 319 0 17 3 45 9 63 12 152 25 403
135 576 252 145 98 223 162 370 305 98 95 100 93 -39 34 -110 -46 -356 -127
-468 -154 -76 -17 -141 -29 -212 -39 -27 -3 -59 -8 -70 -10 -11 -3 -78 -5
-150 -5 -198 0 -343 32 -482 107 -156 85 -230 185 -248 339 -7 59 -7 237 -1
286 3 19 7 61 10 94 3 33 9 94 13 135 4 41 7 156 7 255 -1 152 -5 193 -23 265
-19 73 -92 245 -110 260 -3 3 -26 31 -50 63 -142 186 -451 390 -776 512 -113
42 -213 73 -265 81 -19 3 -41 7 -49 10 -8 2 -37 7 -65 10 -85 10 -86 15 -7 82
93 80 215 172 229 172 5 0 12 4 14 8 12 29 241 141 363 178 111 33 305 42 395
18 151 -41 252 -136 414 -393 178 -282 270 -381 441 -476 95 -52 237 -98 351
-112 73 -9 296 -9 344 0 19 4 49 9 65 12 164 32 351 140 500 289 217 218 385
530 504 942 12 39 21 75 21 79 0 4 -19 -17 -42 -46 -198 -254 -355 -420 -523
-554 -27 -22 -52 -42 -55 -45 -36 -36 -199 -129 -290 -167 -213 -87 -414 -99
-554 -32 -131 62 -209 172 -355 504 -57 127 -160 332 -182 359 -5 6 -35 45
-67 86 -176 226 -385 331 -712 356 -86 6 -386 6 -448 -1 -32 -3 -77 -10 -102
-15 -25 -6 -56 -12 -70 -14 -14 -2 -47 -10 -75 -16 -27 -6 -57 -13 -66 -15 -8
-2 -71 -22 -139 -44 -68 -23 -125 -39 -127 -37 -11 10 100 285 157 391 220
405 511 593 806 519 37 -10 155 -62 268 -119 347 -174 452 -208 637 -204 197
4 400 69 579 187 320 209 480 550 482 1028 1 96 -9 254 -17 284 -2 8 -7 38
-10 66 -5 53 -30 174 -61 302 -20 82 -28 78 -38 -18 -24 -237 -108 -574 -183
-740 -98 -217 -163 -321 -267 -424 -85 -84 -138 -123 -229 -168 -54 -27 -75
-32 -162 -36 -84 -3 -109 -1 -155 17 -51 19 -216 109 -243 132 -24 19 -284
202 -350 246 -100 65 -234 129 -334 159 -74 22 -109 26 -218 28 -149 1 -184
-4 -309 -46 -197 -66 -463 -214 -628 -350 -77 -63 -259 -245 -311 -310 -21
-27 -42 -48 -46 -48 -10 0 -40 148 -49 239 -4 37 -7 154 -7 261 1 171 4 206
24 284 66 255 185 410 362 475 76 28 127 34 364 47 245 13 294 18 400 45 216
53 420 209 571 435 128 192 174 351 169 584 -4 198 -48 363 -154 572 -54 107
-165 286 -208 333 -10 12 -34 41 -53 65 -57 74 -232 260 -244 260 -3 0 -2 -8
4 -17 34 -60 148 -377 180 -502 61 -233 68 -293 66 -526 -2 -220 -2 -220 -35
-315 -76 -220 -191 -350 -343 -385 -71 -17 -254 -22 -353 -11 -22 2 -74 7
-115 11 -41 4 -88 9 -105 11 -81 12 -375 11 -448 -2 -296 -53 -500 -211 -715
-557 -114 -182 -234 -473 -267 -649 -3 -13 -9 -45 -15 -73 -5 -27 -13 -68 -16
-90 -3 -22 -7 -41 -9 -43 -3 -3 -90 97 -143 164 -38 48 -147 215 -180 275
-149 278 -177 562 -74 749 50 91 124 154 354 306 224 149 318 226 393 324 101
132 149 251 191 472 12 67 6 302 -11 382 -93 446 -482 786 -1143 1000 -62 20
-122 36 -134 36 -21 0 -21 0 -2 -17z m544 -4057 c124 -10 208 -26 324 -61 288
-87 533 -232 735 -435 114 -114 132 -136 215 -260 160 -238 262 -515 291 -790
5 -57 6 -295 1 -335 -3 -16 -7 -57 -11 -90 -4 -33 -9 -63 -11 -66 -2 -4 -6
-24 -10 -45 -3 -20 -19 -83 -36 -138 -137 -464 -464 -851 -901 -1065 -93 -46
-276 -113 -337 -125 -14 -2 -45 -9 -70 -15 -25 -5 -67 -13 -95 -16 -27 -3 -61
-8 -74 -11 -30 -6 -348 -6 -380 0 -12 3 -43 8 -67 10 -54 7 -219 48 -296 75
-360 124 -683 378 -893 700 -133 206 -231 468 -260 696 -16 123 -21 353 -10
425 2 19 7 51 9 70 17 135 79 345 146 487 133 284 359 544 626 718 243 159
572 269 824 274 52 1 95 3 96 4 3 3 108 -1 184 -7z"/>
</g>
</svg>
