<svg xmlns="http://www.w3.org/2000/svg" width="40" height="40" viewBox="0 0 40 40">
  <g fill="none" fill-rule="evenodd" transform="translate(-2 -2)">
    <rect width="44" height="44"/>
    <path fill="#000" fill-rule="nonzero" d="M21.029734,39.8904538 C20.4913928,39.7339593 20.0938967,39.5805947 19.5743349,39.3270736 C17.5805947,38.3568075 16.6478873,36.913928 16.8794992,35.1611894 C17.0359937,33.9655712 17.5023474,33.2331768 18.5352113,32.5633803 C18.7699531,32.4100156 19.1079812,32.1940532 19.2832551,32.0813772 C19.6588419,31.8403756 19.9780908,31.5399061 20.1158059,31.2957746 C20.256651,31.0485133 20.3411581,30.6917058 20.3411581,30.3568075 C20.3411581,29.4679186 19.8967136,28.5101721 18.9827856,27.4209703 C18.7261346,27.1173709 18.7636933,27.086072 18.6541471,27.687011 C18.4413146,28.8482003 17.8654147,30.0406886 17.057903,31.0015649 C16.5946792,31.5524257 16,31.8998435 15.2832551,32.0375587 C14.8920188,32.1126761 14.1596244,32.1032864 13.4084507,32.0156495 C12.657277,31.9280125 11.9874804,31.9217527 11.7026604,31.9968701 C11.258216,32.1158059 10.9546166,32.3943662 10.6979656,32.9107981 C10.5164319,33.2801252 10.4319249,33.5868545 10.3849765,34.0751174 C10.28482,35.0547731 10.5978091,36.4820031 11.2175274,37.8873239 L11.2989045,38.0751174 L11.0453834,37.8247261 C9.99061033,36.7918623 9.21752739,35.4553991 9.02347418,34.3348983 C8.95461659,33.9280125 8.97652582,33.2331768 9.06729264,32.8763693 C9.21126761,32.3348983 9.47104851,31.8497653 9.88106416,31.3615023 C10.4757433,30.6541471 11.1267606,30.2910798 12.0093897,30.1752739 C12.1408451,30.1564945 12.5821596,30.1283255 12.9859155,30.1126761 C14.0469484,30.0688576 14.3755869,29.9687011 14.7730829,29.5774648 C15.3458529,29.0140845 15.6181534,28.0219092 15.5242567,26.8513302 C15.4929577,26.4632238 15.3928013,25.7746479 15.3458529,25.627543 C15.3333333,25.5868545 15.2738654,25.6400626 15.1017214,25.8466354 C14.4068858,26.6697966 13.6118936,27.2895149 12.657277,27.7496088 C11.9186228,28.1064163 11.4553991,28.2316119 10.8982786,28.2316119 C10.1377152,28.228482 9.47730829,27.9655712 8.54147105,27.2895149 C7.68388106,26.6697966 7.53364632,26.5665102 7.3114241,26.4475743 C6.68544601,26.1095462 6.2942097,26.0907668 5.74021909,26.3693271 C4.53834116,26.9765258 3.71517997,28.6697966 3.45226917,31.0798122 C3.42723005,31.3239437 3.41784038,31.3051643 3.2801252,30.7511737 C3.10798122,30.0500782 3.05164319,29.5743349 3.05164319,28.7949922 C3.0485133,28.3411581 3.06416275,28 3.09233177,27.8403756 C3.2456964,26.9264476 3.55555556,26.2535211 4.08450704,25.6995305 C4.38184664,25.3865415 4.67292645,25.1737089 5.0829421,24.9671362 C5.91549296,24.5508607 6.72613459,24.4444444 7.52425665,24.6447574 C7.78090767,24.7104851 8.00312989,24.8075117 8.74491393,25.1799687 C9.71205008,25.6651017 9.88732394,25.7276995 10.2785603,25.7276995 C11.1580595,25.7276995 12.0344288,24.9953052 12.6729264,23.7245696 C12.8325509,23.4084507 13.1924883,22.5070423 13.1674491,22.4882629 C13.1611894,22.485133 13.0109546,22.5352113 12.8325509,22.6040689 C12.0375587,22.9045383 11.2488263,23.0453834 10.3255086,23.0453834 C8.77308294,23.0485133 7.9029734,22.7261346 7.20187793,21.8873239 C6.87323944,21.4960876 6.66353678,21.1173709 6.24100156,20.1533646 C5.73082942,18.9921753 5.42097027,18.600939 4.885759,18.4350548 C4.49452269,18.312989 3.81533646,18.3599374 3.33333333,18.541471 C2.31611894,18.9264476 1.19874804,19.8685446 0.256651017,21.1392801 C0.125195618,21.314554 0.0156494523,21.4616588 0.00625978091,21.4710485 C-0.034428795,21.514867 0.20970266,20.6948357 0.359937402,20.2816901 C0.422535211,20.1189358 0.572769953,19.771518 0.701095462,19.514867 C1.71205008,17.4491393 3.24256651,16.5352113 5.09859155,16.8888889 C5.8685446,17.0328638 6.4256651,17.3208138 6.90140845,17.8122066 C7.19248826,18.1158059 7.31455399,18.2879499 7.69640063,18.9045383 C8.07824726,19.5242567 8.28482003,19.7871674 8.53834116,19.9780908 C8.88262911,20.2378717 9.23630673,20.3286385 9.79342723,20.3035994 C10.3474178,20.2785603 10.8701095,20.1032864 11.4960876,19.7370892 C11.8028169,19.5555556 12.400626,19.1173709 12.6885759,18.8638498 L12.8419405,18.7261346 L12.6103286,18.6885759 C12.2347418,18.629108 11.5555556,18.4538341 11.2175274,18.3255086 C10.2347418,17.9624413 9.16118936,17.2738654 8.64788732,16.6791862 C7.97809077,15.8998435 7.79655712,15.0234742 7.97809077,13.42723 C8.11267606,12.2503912 8.09076682,11.7746479 7.89045383,11.370892 C7.67449139,10.9452269 7.18935837,10.6197183 6.4913928,10.4319249 C6.20344288,10.3536776 6.1314554,10.3474178 5.55242567,10.3474178 C5.03599374,10.3474178 4.85758998,10.3599374 4.52269171,10.4194053 C3.82785603,10.541471 2.97652582,10.8075117 2.23474178,11.1298905 L1.92175274,11.2676056 L2.28169014,10.913928 C3.7057903,9.52425665 5.35524257,8.7856025 6.68544601,8.94835681 C7.49921753,9.0485133 8.228482,9.42097027 8.87010955,10.0625978 C9.32081377,10.5101721 9.55555556,10.8920188 9.71205008,11.4303599 C9.81846635,11.8028169 9.84976526,12.0751174 9.88732394,12.942097 C9.90923318,13.514867 9.93114241,13.7527387 9.97809077,13.9374022 C10.1314554,14.5258216 10.456964,14.8982786 11.0798122,15.1956182 C11.8247261,15.5492958 13.0892019,15.6025039 14.2754304,15.3333333 L14.4225352,15.2989045 L14.1502347,15.0735524 C13.3489828,14.4037559 12.685446,13.5461659 12.2316119,12.5978091 C11.8622848,11.8215962 11.7496088,11.3615023 11.7746479,10.7355243 C11.8059468,9.91236307 12.0532081,9.38967136 13.0610329,8 C13.8435055,6.92644757 13.9749609,6.42879499 13.6588419,5.76525822 C13.1956182,4.78873239 12.0782473,4.0657277 10.4194053,3.66197183 C9.94679186,3.54929577 9.36463224,3.44600939 9.03286385,3.42097027 C8.89827856,3.41158059 8.78247261,3.39280125 8.77621283,3.38028169 C8.74491393,3.33020344 9.57746479,3.13928013 10.1846635,3.05477308 C10.9733959,2.94522692 11.7777778,2.96087637 12.4444444,3.09859155 C13.7370892,3.36776213 14.6635368,4.12206573 15.1455399,5.30203443 C15.5837246,6.37871674 15.5492958,7.27699531 15.0266041,8.2942097 C14.9577465,8.42253521 14.7856025,8.76056338 14.6384977,9.04538341 C14.3411581,9.62441315 14.2691706,9.85915493 14.2691706,10.2441315 C14.2691706,11.0923318 14.9452269,11.9405321 16.1189358,12.5633803 C16.5477308,12.7918623 17.4397496,13.1486698 17.4804382,13.1079812 C17.486698,13.0985915 17.4428795,12.9608764 17.3834116,12.801252 C17.2425665,12.4381847 17.0766823,11.7965571 17.0046948,11.3302034 C16.9264476,10.8262911 16.9233177,9.73082942 17.0015649,9.23943662 C17.1392801,8.36619718 17.4053208,7.81846635 17.9342723,7.30516432 C18.3348983,6.92331768 18.7574335,6.66979656 19.6838811,6.25978091 C20.9671362,5.69327074 21.3333333,5.42097027 21.5305164,4.89201878 C21.7183099,4.38497653 21.6056338,3.55868545 21.2519562,2.85758998 C20.8169014,1.99374022 19.9311424,1.01408451 18.85759,0.20970266 C18.5946792,0.0125195618 18.5852895,0 18.6791862,0 C18.8732394,0 19.8998435,0.366197183 20.4194053,0.6228482 C21.6807512,1.24256651 22.4820031,1.99061033 22.8826291,2.9170579 C23.0610329,3.33020344 23.1267606,3.6400626 23.1486698,4.13458529 C23.1956182,5.25508607 22.8513302,6.20031299 22.1502347,6.87323944 C21.9029734,7.11111111 21.687011,7.26134585 20.7605634,7.85602504 C20.0406886,8.31611894 19.7683881,8.69170579 19.6838811,9.33646322 C19.5618153,10.2503912 20.0532081,11.4115806 21.0610329,12.5821596 L21.2613459,12.8137715 L21.314554,12.485133 C21.4960876,11.3458529 21.971831,10.2410016 22.7010955,9.26447574 C23.1236307,8.70109546 23.5618153,8.33176839 24.0594679,8.12206573 C24.7292645,7.84037559 25.370892,7.79968701 26.6948357,7.94992175 C26.9953052,7.98435055 27.4334898,8.01251956 27.6651017,8.01251956 C28.3286385,8.01251956 28.6134585,7.91549296 28.9483568,7.57746479 C29.198748,7.32394366 29.4147105,6.9170579 29.5336463,6.46322379 C29.6118936,6.17214397 29.6181534,6.10015649 29.6181534,5.49295775 C29.6181534,4.93583725 29.6087637,4.77934272 29.5492958,4.4600939 C29.4115806,3.7370892 29.2175274,3.09233177 28.9264476,2.39749609 C28.8325509,2.17214397 28.7480438,1.96557121 28.7386541,1.94053208 C28.7073552,1.85602504 29.1674491,2.32550861 29.4773083,2.69170579 C29.856025,3.14553991 30.0719875,3.45226917 30.3474178,3.93114241 C30.9890454,5.05477308 31.1893584,6.18779343 30.9170579,7.16744914 C30.6416275,8.15962441 29.7683881,9.18309859 28.8951487,9.54616588 C28.4068858,9.74960876 28.0751174,9.79968701 26.8513302,9.85602504 C25.9968701,9.89671362 25.7276995,9.97183099 25.3521127,10.2660407 C24.9358372,10.5978091 24.629108,11.2143975 24.513302,11.971831 C24.456964,12.3568075 24.4726135,13.2895149 24.5477308,13.7402191 C24.6165884,14.1408451 24.6666667,14.3661972 24.6885759,14.3630673 C24.6979656,14.3630673 24.7856025,14.2660407 24.8794992,14.143975 C25.114241,13.8466354 25.7089202,13.2676056 26.0625978,12.9953052 C26.7261346,12.485133 27.6932707,11.9843505 28.3380282,11.8184664 C29.2519562,11.5837246 30.1189358,11.7683881 31.0829421,12.4037559 C31.2269171,12.4976526 31.5962441,12.7574335 31.9061033,12.9859155 C32.4757433,13.4021909 32.9546166,13.6713615 33.2425665,13.743349 C33.458529,13.7934272 33.8748044,13.7652582 34.0876369,13.6807512 C34.541471,13.5054773 35.0735524,13.0453834 35.4084507,12.5446009 C35.6150235,12.2316119 35.915493,11.6150235 36.0532081,11.2206573 C36.2723005,10.5884194 36.4882629,9.58685446 36.541471,8.95461659 C36.5539906,8.81690141 36.57277,8.71048513 36.5884194,8.71674491 C36.600939,8.72613459 36.6541471,8.91079812 36.7073552,9.13302034 C37.114241,10.8169014 37.0547731,12.2910798 36.5383412,13.3802817 C36.2128326,14.0657277 35.6619718,14.6197183 34.9577465,14.9765258 C34.2691706,15.3239437 33.5461659,15.4773083 32.9483568,15.4021909 C32.3974961,15.3302034 32.0375587,15.1893584 30.8888889,14.5852895 C30.6917058,14.4820031 30.4162754,14.3599374 30.2785603,14.3161189 C29.1298905,13.943662 27.9217527,14.8262911 27.170579,16.5884194 C27.0015649,16.9827856 26.8419405,17.4334898 26.8607199,17.4553991 C26.8669797,17.4616588 26.9859155,17.4241002 27.1205008,17.370892 C27.5086072,17.2206573 27.9843505,17.0923318 28.4788732,17.0046948 C28.8763693,16.9327074 29.0203443,16.9233177 29.6525822,16.9201878 C31.1392801,16.913928 31.8810642,17.1486698 32.5821596,17.8403756 C33.0140845,18.2660407 33.3051643,18.7449139 33.7214397,19.7026604 C34.1627543,20.7230047 34.428795,21.1330203 34.8106416,21.3802817 C35.42723,21.7809077 36.5508607,21.6150235 37.5305164,20.9859155 C38.2785603,20.5007825 39.114241,19.6838811 39.7683881,18.7981221 C39.8935837,18.6259781 39.9968701,18.4976526 39.9968701,18.5101721 C39.9968701,18.5790297 39.856025,19.0672926 39.7308294,19.4303599 C39.3082942,20.6666667 38.6416275,21.7245696 37.9061033,22.3255086 C37.2300469,22.8794992 36.5383412,23.1298905 35.6744914,23.1298905 C34.6103286,23.1298905 33.7558685,22.8106416 33.1236307,22.1690141 C32.8763693,21.915493 32.6697966,21.6338028 32.2879499,21.0172144 C31.9280125,20.4381847 31.7402191,20.200313 31.4992175,20.0062598 C31.170579,19.7464789 30.85759,19.6494523 30.3568075,19.6494523 C29.6338028,19.6463224 28.8888889,19.9311424 28.0469484,20.5226917 C27.7589984,20.7292645 27.2175274,21.170579 27.2018779,21.2175274 C27.1956182,21.2331768 27.2676056,21.2550861 27.3583725,21.2676056 C28.7167449,21.4397496 30.3693271,22.2472613 31.2519562,23.1674491 C31.6713615,23.6025039 31.9061033,24.0500782 32.0375587,24.6666667 C32.1158059,25.0391236 32.1095462,25.8998435 32.0219092,26.6635368 C31.8466354,28.1533646 31.9812207,28.7042254 32.6228482,29.1330203 C33.7683881,29.8998435 35.599374,29.7777778 37.8841941,28.7824726 L38.0719875,28.6979656 L37.7120501,29.0516432 C36.6697966,30.0751174 35.5461659,30.7261346 34.4256651,30.9546166 C33.9906103,31.0453834 33.2363067,31.029734 32.8450704,30.9233177 C32.2942097,30.7762128 31.6838811,30.4194053 31.2081377,29.971831 C30.885759,29.6651017 30.7073552,29.4366197 30.5289515,29.0985915 C30.256651,28.5821596 30.1784038,28.2190923 30.1377152,27.2143975 C30.1032864,26.3849765 30.0719875,26.1283255 29.9780908,25.8403756 C29.7652582,25.2018779 29.1298905,24.7261346 28.228482,24.5352113 C27.7652582,24.4350548 26.8356808,24.4350548 26.2410016,24.5320814 C25.6087637,24.6353678 25.5962441,24.6384977 25.6056338,24.6635368 C25.6118936,24.6760563 25.7214397,24.7699531 25.8497653,24.8732394 C26.172144,25.1330203 26.7261346,25.7120501 26.9984351,26.0751174 C27.5555556,26.8169014 28.0219092,27.7589984 28.1846635,28.4663537 C28.2660407,28.8200313 28.2597809,29.4397496 28.1690141,29.7746479 C28.0093897,30.3787167 27.7683881,30.8231612 27.114241,31.7214397 C26.3568075,32.7636933 26.2097027,33.0672926 26.2097027,33.5837246 C26.2097027,33.9092332 26.2660407,34.0876369 26.4788732,34.4538341 C26.6259781,34.6979656 27.1580595,35.2300469 27.4616588,35.42723 C28.3004695,35.9780908 29.5586854,36.3755869 30.9514867,36.5352113 L31.3114241,36.5758998 L31.1236307,36.6322379 C30.8388106,36.7167449 30.3223787,36.829421 29.9374022,36.8920188 C29.4366197,36.970266 28.1158059,36.970266 27.6964006,36.8920188 C26.4319249,36.6510172 25.5273865,36 25.0015649,34.9514867 C24.6760563,34.3067293 24.5508607,33.7621283 24.5758998,33.1298905 C24.600939,32.4976526 24.7198748,32.1471049 25.2081377,31.2363067 C25.5461659,30.6040689 25.6744914,30.2942097 25.7276995,29.9968701 C25.799687,29.5868545 25.6964006,29.1486698 25.4334898,28.7230047 C25.0704225,28.143975 24.5070423,27.687011 23.6431925,27.2738654 C23.2644757,27.0923318 22.5383412,26.8075117 22.513302,26.829421 C22.5101721,26.8356808 22.5508607,26.9671362 22.6103286,27.1236307 C22.9608764,28.0532081 23.0829421,28.8106416 23.0547731,29.8873239 C23.0234742,31.2613459 22.7699531,31.9749609 22.0876369,32.6416275 C21.7214397,33.0015649 21.1924883,33.314554 20.2316119,33.7402191 C19.2143975,34.1909233 18.8356808,34.4381847 18.600939,34.8106416 C18.3223787,35.2488263 18.3255086,36.0187793 18.6040689,36.7636933 C18.9514867,37.6901408 19.9311424,38.8419405 21.1236307,39.7276995 C21.286385,39.8497653 21.4334898,39.9593114 21.4522692,39.9749609 C21.5023474,40.0187793 21.399061,40 21.029734,39.8904538 Z M20.7699531,25.9624413 C22.1126761,25.7871674 23.3114241,25.1924883 24.2816901,24.2222222 C25.8748044,22.6228482 26.4381847,20.228482 25.7214397,18.0782473 C25.0328638,16.0219092 23.342723,14.5226917 21.2018779,14.0657277 C20.6885759,13.9561815 19.7214397,13.9248826 19.1830986,14.0031299 C17.7934272,14.2065728 16.6322379,14.801252 15.6619718,15.8122066 C14.7230047,16.7887324 14.1784038,17.9530516 14.0156495,19.3239437 C13.943662,19.9280125 14.0062598,20.8356808 14.1596244,21.4397496 C14.7636933,23.8372457 16.7636933,25.627543 19.2112676,25.9624413 C19.627543,26.0187793 20.3317684,26.0187793 20.7699531,25.9624413 Z" transform="matrix(1 0 0 -1 2.003 42)"/>
  </g>
</svg>
